<?xml version="1.0" standalone="no"?>
<!DOCTYPE svg PUBLIC "-//W3C//DTD SVG 20010904//EN"
 "http://www.w3.org/TR/2001/REC-SVG-20010904/DTD/svg10.dtd">
<svg version="1.0" xmlns="http://www.w3.org/2000/svg"
 width="458.000000pt" height="545.000000pt" viewBox="0 0 458.000000 545.000000"
 preserveAspectRatio="xMidYMid meet">

<g transform="translate(0.000000,545.000000) scale(0.100000,-0.100000)"
fill="#000000" stroke="none">
<path d="M1765 4073 c54 -7 116 -35 111 -49 -3 -8 -2 -13 2 -11 4 1 9 -2 12
-8 3 -6 -30 -9 -92 -7 -71 3 -106 -1 -130 -12 -18 -8 -60 -17 -93 -20 -33 -3
-85 -15 -116 -26 -45 -17 -59 -28 -72 -56 -26 -53 -20 -58 21 -19 60 59 73 61
45 8 -28 -56 -32 -61 -41 -46 -6 9 -26 0 -67 -28 -79 -54 -95 -69 -95 -90 0
-10 -9 -23 -20 -29 -11 -6 -20 -16 -20 -23 -1 -15 -46 -67 -58 -67 -7 0 -42
-62 -42 -75 0 -14 20 -2 25 15 3 11 11 20 16 20 14 0 0 -41 -22 -66 -11 -11
-19 -25 -19 -32 0 -6 -6 -26 -14 -44 -32 -73 -33 -79 -20 -146 5 -26 9 -30 20
-21 11 9 13 9 9 -2 -3 -8 -1 -37 5 -64 30 -140 47 -241 42 -257 -2 -10 1 -18
7 -18 6 0 10 -16 9 -36 -1 -20 3 -39 8 -42 5 -4 10 -18 12 -32 1 -13 7 -27 14
-31 6 -4 8 -19 5 -35 -3 -19 0 -36 11 -49 16 -19 16 -19 -2 -5 -19 15 -19 13
-12 -75 4 -49 7 -103 7 -120 -1 -28 0 -29 14 -11 8 10 17 38 21 62 3 24 12 51
19 60 11 16 13 16 24 -4 10 -18 9 -27 -4 -44 -8 -13 -15 -43 -15 -70 0 -41 4
-50 30 -70 20 -14 30 -31 30 -47 0 -14 8 -45 17 -69 16 -43 16 -45 -2 -58 -17
-13 -17 -14 11 -14 25 0 33 -6 47 -38 9 -21 37 -70 62 -108 24 -38 45 -75 45
-83 0 -12 25 -49 64 -93 9 -10 18 -29 20 -43 3 -13 7 -29 11 -35 3 -5 1 -10
-5 -10 -6 0 -8 -5 -5 -10 4 -6 10 -8 15 -5 5 3 14 -19 20 -50 9 -42 9 -63 -1
-90 -11 -30 -10 -44 11 -110 13 -41 31 -83 39 -93 20 -23 24 -41 12 -56 -7 -9
4 -21 40 -45 99 -65 128 -72 267 -73 140 0 234 13 301 43 24 10 50 19 59 19
23 0 173 87 210 121 64 60 113 146 130 229 15 71 15 84 1 136 -8 32 -20 59
-27 62 -8 2 -7 -8 4 -34 11 -27 14 -56 10 -103 -3 -36 -6 -74 -6 -83 -2 -22
-20 -24 -20 -2 0 8 -5 12 -10 9 -21 -13 -47 7 -58 44 -7 21 -14 83 -17 139 -5
97 -4 105 24 164 16 35 37 99 46 143 21 103 23 107 34 101 5 -4 7 10 4 32 -6
43 13 125 27 117 24 -15 39 79 25 150 -3 17 -9 57 -12 90 -3 33 -12 70 -20 82
-15 22 -17 51 -13 210 2 62 7 97 16 104 10 8 10 15 2 29 -10 15 -7 22 20 45
23 19 32 35 32 56 0 16 4 29 9 29 5 0 12 8 15 18 3 9 3 0 0 -21 -4 -26 -2 -37
5 -32 14 8 14 69 1 115 -7 25 -7 36 3 42 9 6 7 17 -10 47 -26 45 -28 55 -10
45 10 -6 10 -4 0 7 -7 7 -13 27 -13 44 0 18 -9 41 -20 53 -12 12 -18 22 -15
22 4 0 -7 18 -24 39 -34 42 -100 84 -158 100 -19 5 -51 22 -71 38 -73 56 -102
66 -164 59 -55 -5 -58 -4 -73 22 l-15 27 3 -34 c1 -20 -3 -36 -10 -38 -7 -3
-13 3 -13 12 0 9 -7 23 -15 31 -8 9 -15 20 -15 26 0 6 6 6 15 -2 9 -7 15 -8
15 -2 0 5 -10 16 -22 25 -34 22 -101 87 -96 93 10 9 63 -26 101 -68 l39 -43
-35 50 c-31 44 -114 121 -92 86 4 -8 -12 5 -36 29 -52 51 -76 61 -138 59 -26
-1 -60 5 -78 14 -18 10 -49 16 -70 16 -33 -2 -34 -2 -8 -6z m237 -59 c5 -3 7
-12 4 -20 -3 -8 1 -14 9 -14 8 0 15 -5 15 -10 0 -7 -14 -9 -37 -5 -54 9 -65
14 -58 24 3 5 -4 16 -16 25 -21 14 -19 15 25 11 26 -3 52 -8 58 -11z m-202
-47 c0 -21 -48 -43 -62 -29 -17 17 -45 15 -57 -5 -6 -10 -11 -12 -11 -5 0 6 9
21 20 32 24 24 110 29 110 7z m220 -30 c8 -7 23 -22 34 -34 18 -22 18 -22 -10
-19 -15 2 -35 13 -45 25 -9 11 -22 21 -28 21 -6 0 -11 5 -11 10 0 14 42 12 60
-3z m-200 -17 c0 -5 -4 -10 -10 -10 -5 0 -10 5 -10 10 0 6 5 10 10 10 6 0 10
-4 10 -10z m65 -30 c3 -5 -1 -10 -9 -10 -9 0 -16 5 -16 10 0 6 4 10 9 10 6 0
13 -4 16 -10z m-330 -10 c-28 -12 -37 -12 -30 0 3 6 16 10 28 9 21 0 21 -1 2
-9z m355 -20 c0 -5 -7 -10 -16 -10 -8 0 -12 5 -9 10 3 6 10 10 16 10 5 0 9 -4
9 -10z m211 -12 c11 -21 11 -22 -4 -9 -10 7 -17 17 -17 22 0 15 9 10 21 -13z
m-791 -102 c0 -3 -4 -8 -10 -11 -5 -3 -10 -1 -10 4 0 6 5 11 10 11 6 0 10 -2
10 -4z m1074 -2 c9 -3 16 -12 16 -20 0 -18 -60 -19 -60 -1 0 7 -8 3 -16 -8
-11 -14 -18 -16 -21 -7 -3 6 -13 12 -23 12 -10 0 -20 7 -24 15 -4 12 5 15 53
15 33 0 66 -3 75 -6z m-1094 -84 c0 -5 -7 -7 -15 -4 -8 4 -15 8 -15 10 0 2 7
4 15 4 8 0 15 -4 15 -10z m1317 -46 c-3 -3 -12 -4 -19 -1 -8 3 -5 6 6 6 11 1
17 -2 13 -5z m53 -104 c0 -5 -2 -10 -4 -10 -3 0 -8 5 -11 10 -3 6 -1 10 4 10
6 0 11 -4 11 -10z m69 -46 c3 -16 1 -17 -13 -5 -19 16 -21 34 -3 29 6 -3 14
-13 16 -24z m31 -126 c0 -5 -4 -8 -8 -8 -10 0 -42 65 -42 83 1 12 50 -62 50
-75z m-628 -41 c7 -7 21 -16 30 -20 10 -3 20 -18 24 -32 3 -14 10 -25 15 -25
5 0 8 -5 6 -11 -1 -6 12 -19 30 -28 17 -9 34 -26 38 -38 3 -13 10 -23 15 -23
6 0 10 -6 10 -14 0 -7 7 -20 16 -27 13 -11 17 -10 25 4 5 9 16 14 24 11 9 -4
15 0 15 10 0 38 33 3 157 -167 73 -101 117 -418 77 -558 -23 -81 -35 -109 -45
-103 -5 3 -7 23 -4 44 5 38 -7 61 -20 40 -9 -15 -52 -12 -69 5 -8 8 -30 18
-48 21 -18 3 -46 12 -63 19 -119 52 -110 53 -113 -23 -2 -29 -5 -33 -24 -30
-13 2 -22 9 -20 17 2 8 -3 11 -12 8 -20 -8 -28 4 -14 21 13 15 -4 32 -67 66
-31 17 -36 17 -64 3 -26 -13 -31 -13 -31 -1 0 18 -16 18 -23 0 -6 -15 -77 -12
-109 5 -10 6 -19 5 -23 -1 -4 -6 -22 -17 -41 -25 -38 -15 -40 -22 -20 -50 23
-31 8 -53 -42 -64 -26 -5 -50 -7 -54 -5 -4 3 -8 25 -8 49 0 45 -15 69 -26 41
-3 -9 -10 -13 -15 -10 -5 3 -9 0 -9 -5 0 -6 -6 -11 -13 -11 -26 0 -117 -31
-117 -40 0 -5 -12 -21 -27 -36 -23 -23 -27 -24 -35 -10 -5 9 -14 16 -21 16
-14 1 -57 35 -57 46 0 4 -13 35 -29 68 -39 83 -54 255 -36 414 6 46 14 61 58
110 74 83 73 82 101 82 14 0 26 4 26 9 0 5 10 11 23 15 23 5 61 58 50 69 -3 4
2 9 11 13 9 3 16 12 16 19 0 7 19 29 41 50 40 36 43 37 98 31 136 -17 131 -18
226 40 46 27 144 34 167 11z m622 -32 c3 -8 1 -15 -4 -15 -6 0 -10 7 -10 15 0
8 2 15 4 15 2 0 6 -7 10 -15z m-48 -124 c-15 -14 -16 -14 -16 3 0 10 6 37 13
60 l12 41 3 -44 c2 -30 -2 -49 -12 -60z m-21 -80 c3 -5 1 -12 -4 -15 -5 -3
-11 1 -15 9 -6 16 9 21 19 6z m2 -563 c4 -55 2 -78 -6 -78 -6 0 -11 10 -12 23
0 12 -4 54 -8 92 -5 39 -6 74 -3 79 10 17 24 -38 29 -116z m-237 -287 c0 -6
-4 -13 -10 -16 -5 -3 -10 1 -10 9 0 9 5 16 10 16 6 0 10 -4 10 -9z m-858 -30
c15 -18 15 -19 -3 -24 -10 -3 -17 -1 -14 3 3 5 1 11 -5 15 -12 7 -13 25 -2 25
4 0 15 -9 24 -19z m583 9 c-3 -5 -14 -10 -24 -10 -9 0 -22 -5 -28 -11 -17 -17
-190 -24 -240 -10 -78 21 -51 33 60 27 56 -4 118 -2 137 3 49 13 103 13 95 1z
m85 -165 c22 -27 -15 -44 -90 -41 -36 1 -70 5 -75 7 -6 3 -30 7 -55 8 -24 1
-46 4 -48 5 -2 2 -15 -7 -29 -20 -32 -29 -98 -44 -134 -30 -28 12 -29 13 -29
51 0 24 1 24 98 27 303 9 349 8 362 -7z"/>
<path d="M1965 4000 c-3 -5 1 -10 10 -10 9 0 13 5 10 10 -3 6 -8 10 -10 10 -2
0 -7 -4 -10 -10z"/>
<path d="M2189 2970 c-93 -16 -166 -70 -155 -113 3 -13 8 -42 12 -63 3 -21 11
-45 17 -53 7 -8 11 -17 9 -20 -6 -16 32 -41 65 -43 21 -1 58 -3 83 -5 191 -10
220 -4 220 44 0 21 -3 23 -14 14 -8 -7 -17 -8 -20 -3 -11 19 33 20 49 2 12
-13 26 -17 48 -13 50 8 57 28 30 82 -12 25 -31 67 -42 93 -28 67 -54 81 -164
84 -51 1 -113 -1 -138 -6z"/>
<path d="M1629 2965 c-5 -4 -69 -13 -106 -14 -40 -2 -71 -41 -78 -100 -3 -30
-10 -60 -16 -67 -6 -7 -8 -22 -5 -32 7 -22 68 -43 87 -31 9 5 20 0 34 -17 22
-28 73 -43 132 -39 21 1 42 -3 46 -9 6 -7 7 -4 3 7 -3 11 0 17 9 17 8 0 15 -6
15 -12 0 -10 2 -10 8 0 5 7 32 16 61 21 63 10 78 23 101 91 20 60 15 95 -20
130 -20 20 -29 24 -90 37 -14 3 -29 9 -35 13 -11 7 -139 12 -146 5z"/>
<path d="M1674 4049 c-17 -5 -39 -19 -50 -31 -14 -17 -14 -19 -2 -10 9 8 38
22 65 32 49 20 42 25 -13 9z"/>
<path d="M1790 4030 c39 -21 50 -24 50 -12 0 11 -46 32 -68 32 -10 -1 -3 -9
18 -20z"/>
<path d="M2736 3084 c-4 -9 -4 -19 -1 -22 2 -3 7 3 11 12 4 9 4 19 1 22 -2 3
-7 -3 -11 -12z"/>
<path d="M1273 2361 c1 -11 6 -17 14 -14 10 4 11 9 2 19 -15 19 -18 18 -16 -5z"/>
<path d="M2480 395 c-6 -8 -10 -19 -8 -24 1 -6 8 1 15 14 13 28 11 31 -7 10z"/>
<path d="M2254 318 c-38 -64 -38 -65 -10 -35 14 15 26 32 26 38 0 13 -7 11
-16 -3z"/>
<path d="M3390 282 c1 -4 7 -18 15 -32 l14 -25 1 26 c0 15 -7 29 -15 33 -8 3
-15 2 -15 -2z"/>
<path d="M2155 259 c-4 -6 -5 -12 -2 -15 2 -3 7 2 10 11 7 17 1 20 -8 4z"/>
<path d="M2090 195 c-18 -9 -29 -10 -37 -3 -10 8 -13 6 -13 -6 0 -9 -13 -25
-30 -34 -16 -9 -30 -20 -30 -24 0 -5 -6 -8 -12 -8 -15 -1 -58 -35 -58 -46 0
-4 9 1 19 10 15 13 20 14 24 4 4 -10 6 -10 6 0 1 6 8 12 16 12 8 0 15 5 15 10
0 6 9 10 19 10 11 0 23 5 27 12 5 7 2 9 -7 4 -8 -4 -5 0 5 8 11 9 28 16 38 16
10 0 18 4 18 10 0 5 12 16 28 24 15 8 20 15 12 15 -8 0 -26 -6 -40 -14z"/>
<path d="M2106 145 c-11 -8 -28 -15 -38 -15 -10 0 -18 -4 -18 -10 0 -5 -7 -10
-15 -10 -8 0 -15 -7 -15 -15 0 -8 -16 -21 -36 -30 -30 -12 -33 -17 -22 -29 11
-12 14 -12 21 2 8 16 83 76 100 78 4 1 11 2 17 3 5 0 14 10 20 21 13 24 11 24
-14 5z"/>
<path d="M3392 140 c0 -14 2 -19 5 -12 2 6 2 18 0 25 -3 6 -5 1 -5 -13z"/>
<path d="M2498 122 c5 -25 5 -25 20 3 9 17 7 21 -7 21 -13 0 -16 -6 -13 -24z"/>
<path d="M2373 125 c-3 -9 -3 -18 -1 -21 3 -3 8 4 11 16 6 23 -1 27 -10 5z"/>
<path d="M2446 127 c3 -10 9 -15 12 -12 3 3 0 11 -7 18 -10 9 -11 8 -5 -6z"/>
<path d="M2148 123 c6 -2 18 -2 25 0 6 3 1 5 -13 5 -14 0 -19 -2 -12 -5z"/>
<path d="M2477 113 c-4 -3 -7 -11 -7 -17 0 -6 5 -5 12 2 6 6 9 14 7 17 -3 3
-9 2 -12 -2z"/>
<path d="M2170 101 c0 -9 -8 -11 -27 -7 -18 4 -23 3 -15 -2 11 -7 7 -14 -16
-31 -17 -11 -36 -21 -43 -21 -7 0 -10 -3 -6 -6 10 -10 77 19 77 34 0 9 7 13
20 9 24 -6 32 4 19 23 -7 12 -9 12 -9 1z"/>
<path d="M2158 43 c-10 -2 -18 -11 -18 -18 0 -18 26 -9 34 11 3 8 4 13 3 13
-1 -1 -10 -3 -19 -6z"/>
<path d="M2485 10 c-3 -5 -1 -10 4 -10 6 0 11 5 11 10 0 6 -2 10 -4 10 -3 0
-8 -4 -11 -10z"/>
</g>
</svg>
